Coordinates
version=1
nRows=19
nColumns=36
inDegrees=yes

Units are S.I. units (second, meters, Newtons, ...)
If the header above contains a line with 'inDegrees', this indicates whether rotational values are in degrees (yes) or radians (no).

endheader
time	pelvis_tilt	pelvis_list	pelvis_rotation	pelvis_tx	pelvis_ty	pelvis_tz	hip_flexion_r	hip_adduction_r	hip_rotation_r	knee_angle_r	knee_angle_r_beta	ankle_angle_r	subtalar_angle_r	mtp_angle_r	hip_flexion_l	hip_adduction_l	hip_rotation_l	knee_angle_l	knee_angle_l_beta	ankle_angle_l	subtalar_angle_l	mtp_angle_l	lumbar_extension	lumbar_bending	lumbar_rotation	arm_flex_r	arm_add_r	arm_rot_r	elbow_flex_r	pro_sup_r	arm_flex_l	arm_add_l	arm_rot_l	elbow_flex_l	pro_sup_l
      3.34000000	    -22.57190358	      2.54233395	     -3.49792969	     -0.26768360	      0.84355280	     -0.54453138	     57.56369227	     -2.48929427	      2.91378348	     52.14765203	      0.91014823	     20.72664935	    -11.11840572	     -7.49999987	     59.64050603	    -14.48226628	     -6.53234706	     54.60204003	      0.95298538	      7.00700552	     -6.95683794	     -7.49999987	    -17.76435190	      2.12176762	      2.35990695	     79.90190731	     -6.73912295	     15.16296568	     86.45880480	    111.66361372	     77.20892711	     -1.91373244	      4.55568651	     84.38827619	    108.62435794
      3.35000000	    -23.20172555	      2.57523511	     -3.44371387	     -0.27114883	      0.83837445	     -0.54454586	     59.10147274	     -2.46406183	      2.94687046	     53.26320491	      0.92961830	     21.16151199	    -11.12349602	     -7.49999987	     61.14706159	    -14.55569505	     -6.27510422	     55.56205723	      0.96974084	      7.19797528	     -7.05214240	     -7.49999987	    -18.04910578	      2.19494378	      2.33571515	     81.29996887	     -6.48243456	     15.60918418	     87.68038390	    111.75997852	     78.12788199	     -1.75657500	      4.61465124	     86.05207831	    108.81764429
      3.36000000	    -23.80755926	      2.62047354	     -3.40275246	     -0.27448944	      0.83333134	     -0.54453270	     60.56389048	     -2.44293055	      3.00715476	     54.30990494	      0.94788666	     21.62927966	    -11.12628613	     -7.49999987	     62.59254959	    -14.62745625	     -6.03682427	     56.47419980	      0.98566073	      7.42405392	     -7.10777985	     -7.49999987	    -18.33638920	      2.23877196	      2.35894444	     82.60385588	     -6.28511923	     16.03968827	     88.90586655	    111.85577840	     79.00464474	     -1.57407951	      4.73885824	     87.65044541	    109.00373000
      3.37000000	    -24.26589510	      2.67508858	     -3.36905476	     -0.27768647	      0.82856244	     -0.54446064	     61.85690511	     -2.42610849	      3.07553982	     55.36486432	      0.96629917	     22.02240764	    -11.25295869	     -7.49999987	     63.85853853	    -14.72660489	     -5.89099405	     57.39019759	      1.00164791	      7.58157187	     -7.17224566	     -7.49999987	    -18.75523809	      2.24242080	      2.41755295	     83.85957183	     -6.06687242	     16.33896310	     89.96720682	    111.94158712	     79.91579242	     -1.33645328	      4.91574329	     88.99084124	    109.16215329
      3.38000000	    -24.88729421	      2.72975979	     -3.31428396	     -0.28078103	      0.82363924	     -0.54432546	     63.28568523	     -2.37925084	      3.14288708	     56.35088537	      0.98350849	     22.47989081	    -11.40253137	     -7.49999987	     65.26935264	    -14.78729023	     -5.66918982	     58.22967275	      1.01629951	      7.78197355	     -7.18779831	     -7.49999987	    -18.97651490	      2.24316860	      2.43265521	     85.00769468	     -5.93506716	     16.75646134	     91.19899595	    112.04609469	     80.65739268	     -1.24454624	      5.14433275	     90.59625853	    109.36356880
      3.39000000	    -25.57431013	      2.74006058	     -3.21244390	     -0.28370612	      0.81875820	     -0.54421359	     64.73917327	     -2.32472807	      3.17042794	     57.26335325	      0.99943406	     22.92336247	    -11.49254062	     -7.49999987	     66.71224614	    -14.81200513	     -5.35384049	     58.98459449	      1.02947538	      8.02518677	     -7.12006253	     -7.49999987	    -19.08864484	      2.31213591	      2.37775338	     86.05301037	     -5.76334738	     17.25291578	     92.41165116	    112.14662456	     81.24428812	     -1.19542048	      5.40023064	     92.27978583	    109.59095773
      3.40000000	    -26.07108130	      2.74533693	     -3.12751324	     -0.28640955	      0.81417038	     -0.54409094	     65.99554919	     -2.29822744	      3.16055215	     58.22612443	      1.01623758	     23.28696551	    -11.58511974	     -7.49999987	     67.96086981	    -14.86176808	     -5.10653132	     59.79974399	      1.04370242	      8.22483837	     -7.10994536	     -7.49999987	    -19.36531672	      2.36445302	      2.37973249	     87.07724689	     -5.63193215	     17.67455108	     93.44344515	    112.23402319	     81.86308203	     -1.05050624	      5.64106622	     93.67984407	    109.76842088
      3.41000000	    -26.57161934	      2.74260511	     -3.04631333	     -0.28899982	      0.80972611	     -0.54401445	     67.18351727	     -2.27490367	      3.19601551	     59.08161933	      1.03116878	     23.64847520	    -11.53369338	     -7.49999987	     69.19640415	    -14.89824439	     -4.84286347	     60.58095362	      1.05733710	      8.41450731	     -7.07247022	     -7.49999987	    -19.62053785	      2.44168644	      2.42160661	     88.03997479	     -5.54586597	     18.16474841	     94.42849089	    112.32743582	     82.46211735	     -0.91061373	      5.88790745	     95.08199895	    109.94489241
      3.42000000	    -26.97815978	      2.76562770	     -3.00170446	     -0.29138542	      0.80540979	     -0.54398282	     68.30055257	     -2.29029240	      3.19026259	     59.99082266	      1.04703738	     23.94383518	    -11.50546800	     -7.49999987	     70.31133665	    -14.94694599	     -4.63076462	     61.38866649	      1.07143435	      8.55944103	     -7.09341545	     -7.49999987	    -19.92534980	      2.43497851	      2.38983137	     88.97064136	     -5.45656954	     18.56358203	     95.33208388	    112.41433228	     82.97636985	     -0.78077912	      6.18952219	     96.32222628	    110.11318169
      3.43000000	    -27.26725926	      2.82569412	     -2.94365079	     -0.29382064	      0.80135836	     -0.54396663	     69.30611866	     -2.29809199	      3.30167845	     60.87675184	      1.06249976	     24.13035968	    -11.56270173	     -7.49999987	     71.27509779	    -14.91215268	     -4.40212880	     62.12365780	      1.08426237	      8.63950565	     -7.14861395	     -7.49999987	    -20.39286055	      2.41890301	      2.44707547	     89.96741862	     -5.22950768	     18.72543188	     95.96497419	    112.46678575	     83.70238804	     -0.57577460	      6.41598758	     97.16051761	    110.22220488
      3.44000000	    -27.84868711	      2.86754596	     -2.82654758	     -0.29588139	      0.79673068	     -0.54415803	     70.63975656	     -2.40128564	      3.26413938	     61.86720953	      1.07978651	     24.54717191	    -11.41512436	     -7.49999987	     72.58004840	    -14.84937481	     -4.13213154	     62.94079831	      1.09852416	      8.87260985	     -7.18899287	     -7.49999987	    -20.40467777	      2.47676983	      2.37146647	     90.61090113	     -5.35887317	     19.43561321	     97.18668583	    112.59417392	     83.93514011	     -0.72414585	      6.89303556	     98.85943317	    110.45776033
      3.45000000	    -28.17968887	      2.88666980	     -2.79739524	     -0.29792135	      0.79248330	     -0.54407929	     71.66969855	     -2.37875855	      3.30879907	     62.78134151	      1.09574112	     24.86639487	    -11.39469930	     -7.49999987	     73.60921222	    -14.91167684	     -3.93060839	     63.76230958	      1.11286224	      9.00785023	     -7.21892136	     -7.49999987	    -20.70377613	      2.49219569	      2.41459411	     91.36125172	     -5.32675419	     19.83824957	     98.01976532	    112.67996938	     84.37028951	     -0.65989656	      7.20402474	     99.99048576	    110.61466629
      3.46000000	    -28.42182434	      2.91142980	     -2.80023947	     -0.29997149	      0.78838227	     -0.54394396	     72.60115075	     -2.33215181	      3.36903642	     63.67622496	      1.11135978	     25.06488519	    -11.44525459	     -7.49999987	     74.53882060	    -14.99500800	     -3.75502076	     64.57444824	      1.12703673	      9.09147645	     -7.26258488	     -7.49999987	    -21.10229457	      2.46824723	      2.47351030	     92.16133411	     -5.25879029	     20.07559440	     98.66486325	    112.74384015	     84.93597372	     -0.56221487	      7.41591852	    100.85830663	    110.73073328
      3.47000000	    -28.89818784	      2.89527308	     -2.77787865	     -0.30184078	      0.78398812	     -0.54386827	     73.73563553	     -2.30925708	      3.34172198	     64.50688864	      1.12585760	     25.40893606	    -11.25067204	     -7.49999987	     75.71076162	    -15.08190069	     -3.49724019	     65.36503589	      1.14083509	      9.29170230	     -7.18142007	     -7.49999987	    -21.18768048	      2.53527539	      2.53691050	     92.79070977	     -5.37974446	     20.77648946	     99.63070983	    112.87040277	     85.17912030	     -0.63101181	      7.89121996	    102.21414063	    110.94723566
      3.48000000	    -29.22688269	      2.89681382	     -2.81040419	     -0.30368956	      0.77978359	     -0.54363919	     74.72425244	     -2.22409679	      3.36844687	     65.36046232	      1.14075527	     25.70317738	    -11.16382410	     -7.49999987	     76.73255578	    -15.23588499	     -3.31105109	     66.18039067	      1.15506572	      9.40858371	     -7.11288305	     -7.49999987	    -21.42411676	      2.52684074	      2.67777512	     93.43012820	     -5.46112342	     21.18737358	    100.31497932	    112.95752428	     85.56436075	     -0.61311196	      8.32743876	    103.16740732	    111.10226055
      3.49000000	    -29.56938033	      2.86839750	     -2.87283871	     -0.30546346	      0.77557145	     -0.54327345	     75.69353172	     -2.06754881	      3.39381858	     66.16935618	      1.15487313	     26.00899423	    -11.10169334	     -7.49999987	     77.77186532	    -15.44801433	     -3.09140975	     66.99542584	      1.16929076	      9.52538829	     -6.98937888	     -7.49999987	    -21.62635830	      2.52328250	      2.82990880	     94.03182734	     -5.55808686	     21.61075483	    101.01902229	    113.04842044	     85.92801079	     -0.62673779	      8.74733037	    104.09245371	    111.25706506
      3.50000000	    -29.73844530	      2.87767413	     -2.94513898	     -0.30722502	      0.77169763	     -0.54286311	     76.49065050	     -1.90419774	      3.50938963	     66.98586883	      1.16912396	     26.16319583	    -11.17244839	     -7.49999987	     78.58389880	    -15.61631947	     -2.87929735	     67.75917167	      1.18262064	      9.56277253	     -7.00048573	     -7.49999987	    -22.02864035	      2.44833117	      2.91643187	     94.64915397	     -5.41662205	     21.78482771	    101.46144868	    113.09216474	     86.43891577	     -0.53011504	      8.96797748	    104.64218368	    111.33947624
      3.51000000	    -30.24877635	      2.72510930	     -3.01680823	     -0.30891402	      0.76728421	     -0.54240039	     77.57220610	     -1.69076012	      3.36495442	     67.71035994	      1.18176872	     26.51462602	    -11.00575102	     -7.49999987	     79.84466399	    -15.91000557	     -2.54822190	     68.58447040	      1.19702482	      9.83961057	     -6.66440172	     -7.49999987	    -21.99955058	      2.56124569	      3.06057370	     95.14705405	     -5.76667204	     22.51564884	    102.36456893	    113.20500801	     86.67841161	     -0.85003573	      9.55228277	    105.80799356	    111.60311914
      3.52000000	    -30.54330354	      2.70126252	     -3.10675736	     -0.31059358	      0.76327349	     -0.54190320	     78.47419282	     -1.52851176	      3.35377816	     68.46982979	      1.19502397	     26.71024495	    -11.01948788	     -7.49999987	     80.78163662	    -16.09874342	     -2.28624466	     69.32825537	      1.21000632	     10.00029267	     -6.62248751	     -7.49999987	    -22.22504178	      2.50248231	      3.19095651	     95.65703920	     -5.88361501	     22.91748637	    103.00892569	    113.27589493	     87.09052432	     -0.95126006	      9.99480971	    106.60099599	    111.77327956
